<svg width="111" height="112" viewBox="0 0 111 112" fill="none" xmlns="http://www.w3.org/2000/svg">
<path d="M54.9 111.8C85.2204 111.8 109.8 87.2204 109.8 56.9C109.8 26.5796 85.2204 2 54.9 2C24.5796 2 0 26.5796 0 56.9C0 87.2204 24.5796 111.8 54.9 111.8Z" fill="url(#paint0_linear)"/>
<path fill-rule="evenodd" clip-rule="evenodd" d="M38.9301 63.92C38.7401 64.07 38.4601 64.13 37.7401 64.38C33.9601 65.69 30.2001 67.24 26.4601 69.07C24.1001 70.22 24.3301 69.8 23.3101 72.19C20.6801 78.31 18.1801 84.71 16.3401 90.86C22.5301 97.53 30.3901 102.63 39.2501 105.5C42.5801 106.4 46.0401 107.14 49.5701 107.75C51.4701 107.97 53.4101 108.1 55.3701 108.12H56.5801C58.4901 108.09 60.3701 107.97 62.2301 107.75C65.7501 107.14 69.2201 106.4 72.5501 105.5C81.4101 102.63 89.2601 97.53 95.4601 90.86C93.6201 84.71 91.1201 78.31 88.4901 72.19C87.4701 69.8 87.7001 70.22 85.3301 69.07C81.6001 67.24 77.8401 65.69 74.0601 64.38C73.5501 64.2 73.2701 64.12 73.0701 64.04L73.0201 63.92C72.3001 62.68 71.4501 61.53 70.4801 60.45C75.0701 60.77 78.8001 59.63 81.1401 56.8C83.4001 54.05 83.5301 52.01 83.6501 48.68C83.8801 42.15 83.3801 35.13 81.5801 28.59C79.8301 22.2 76.8501 16.27 72.1201 11.71C67.5901 7.34997 62.3001 3.90997 55.9001 3.90997C51.3901 3.90997 47.4801 4.73997 44.7201 9.10997C42.0001 8.75997 40.5201 9.96997 38.7101 11.71C33.9801 16.27 31.0001 22.2 29.2501 28.59C27.4501 35.13 26.9501 42.15 27.1801 48.68C27.3001 52.01 27.4201 54.05 29.6901 56.8C32.1901 59.83 36.2901 60.92 41.3201 60.37H41.3801C40.4501 61.43 39.6401 62.62 38.9301 63.92Z" fill="#1A1617"/>
<path fill-rule="evenodd" clip-rule="evenodd" d="M41.32 60.38C42.31 59.32 43.49 58.33 44.81 57.39L45.5 54.19C43.11 51.41 41.31 47.69 40.41 43.44C38.6 43.48 36.69 41.37 35.95 38.35C35.35 35.95 35.31 34.01 35.98 32.78C37.12 30.69 39.16 31.99 39.97 33.54C40.72 27.2 43.41 21.76 47.18 18.42C49.91 21.5 53.14 24.05 57.39 24.52C65.52 25.42 69.82 28.31 71.78 33.11C72.7 31.77 74.47 30.89 75.51 32.78C76.17 34.01 76.13 35.95 75.54 38.35C74.84 41.19 73.11 43.23 71.4 43.42C70.52 47.53 68.82 51.14 66.55 53.89L66.5 54.19L67.23 57.56C68.37 58.33 69.51 59.3 70.43 60.47C75.04 60.8 78.79 59.66 81.14 56.82C83.4 54.07 83.53 52.03 83.65 48.7C83.88 42.17 83.38 35.14 81.58 28.6C79.83 22.21 76.85 16.28 72.12 11.73C67.59 7.36998 62.3 3.91998 55.9 3.91998C51.39 3.91998 47.48 4.75998 44.72 9.11998C42 8.76998 40.52 9.98998 38.71 11.73C33.98 16.28 31 22.21 29.25 28.6C27.45 35.14 26.95 42.17 27.18 48.7C27.3 52.03 27.42 54.07 29.69 56.82C32.19 59.85 36.29 60.94 41.32 60.38Z" fill="#3D3D3D"/>
<path fill-rule="evenodd" clip-rule="evenodd" d="M71.78 33.11C72.7 31.77 74.47 30.89 75.51 32.78C76.17 34.01 76.13 35.95 75.54 38.35C74.84 41.19 73.11 43.23 71.4 43.42C70.52 47.53 68.82 51.14 66.55 53.89L66.5 54.19L67.2 57.4L67.14 57.39C67.2 57.58 67.26 57.76 67.31 57.94L67.34 58.05C67.58 58.93 67.81 59.86 68.01 60.85C69.4 68.82 66.55 76.28 63.19 84.01C61.33 85.99 58.54 87.52 56 87.41C53.42 87.52 50.57 85.94 48.72 83.9C45.59 76.71 42.92 69.74 43.72 62.37C43.96 60.82 44.3 59.36 44.67 58.05L44.81 57.39L45.5 54.19C43.11 51.41 41.31 47.69 40.41 43.44C38.6 43.48 36.69 41.37 35.95 38.35C35.35 35.95 35.31 34.01 35.98 32.78C37.12 30.69 39.16 31.99 39.97 33.54C40.72 27.2 43.41 21.76 47.18 18.42C49.91 21.5 53.14 24.05 57.39 24.52C65.52 25.42 69.82 28.31 71.78 33.11Z" fill="#F6D5B8"/>
<path fill-rule="evenodd" clip-rule="evenodd" d="M40.2701 42.76C39.9101 41.1 39.7201 39.42 39.6801 37.73C39.6501 36.64 39.6901 35.56 39.7901 34.47C39.7001 34.35 39.6101 34.23 39.5001 34.11C39.1601 33.74 38.5401 33.26 37.9801 33.3C37.5601 33.34 37.2901 33.68 37.1201 34C36.4101 35.28 36.8801 37.43 37.2601 38.74C37.5901 39.86 38.1701 41.02 39.0201 41.88C39.3501 42.22 39.7901 42.56 40.2701 42.76ZM71.4301 42.76C71.7901 41.1 71.9801 39.42 72.0201 37.73C72.0501 36.64 72.0101 35.56 71.9101 34.47C72.0001 34.35 72.0901 34.23 72.2001 34.11C72.5401 33.74 73.1601 33.26 73.7201 33.3C74.1401 33.34 74.4101 33.68 74.5901 34C75.2901 35.28 74.8201 37.43 74.4401 38.74C74.1101 39.86 73.5301 41.02 72.6801 41.88C72.3501 42.22 71.9201 42.56 71.4301 42.76Z" fill="#E6C6AA"/>
<path fill-rule="evenodd" clip-rule="evenodd" d="M67.2 57.4L66.5 54.19L66.55 53.89C63.71 57.33 59.98 59.42 55.9 59.42C51.94 59.42 48.31 57.45 45.5 54.19L45.3 55.1C46.47 56.68 47.81 57.93 49.3 58.91C51.31 60.22 53.58 61.04 56.06 61.49C58.63 61.96 61.42 62.03 64.35 61.85C65.11 61.8 64.99 61.67 65.19 62.42C67.62 71.95 63.48 87.49 48.81 84C50.66 85.99 53.46 87.52 56 87.41C58.54 87.52 61.33 85.99 63.19 84.01C66.83 75.63 70.22 66.55 67.2 57.4Z" fill="#E6C6AA"/>
<path fill-rule="evenodd" clip-rule="evenodd" d="M71.78 33.11C69.82 28.31 65.52 25.42 57.39 24.52C53.14 24.05 49.91 21.5 47.18 18.42C43.41 21.76 40.72 27.2 39.97 33.53C42.14 29.05 43.85 23.91 47.07 20.75C51.25 30.64 65.46 24.44 71.78 33.11Z" fill="#E6C6AA"/>
<path fill-rule="evenodd" clip-rule="evenodd" d="M73.02 63.92C73.52 65.01 73.95 66.13 74.29 67.28C74.63 68.43 74.88 69.62 75.03 70.84C75.07 71.18 75.12 71.37 75.11 71.55C75.11 71.72 75.04 71.89 74.85 72.17C74.47 72.75 74.02 73.28 73.49 73.79C72.96 74.29 72.36 74.76 71.7 75.21L74.08 77.75L76.47 80.29L66.22 93.37L55.98 106.45L45.73 93.37L35.48 80.29L37.87 77.75L40.25 75.21C39.59 74.76 38.99 74.29 38.46 73.79C37.94 73.28 37.48 72.75 37.1 72.17C36.91 71.89 36.84 71.72 36.84 71.55C36.83 71.37 36.88 71.18 36.92 70.84C37.07 69.62 37.32 68.43 37.66 67.28C38 66.13 38.43 65.01 38.93 63.92C39.67 62.57 40.51 61.34 41.49 60.24C42.46 59.14 43.56 58.19 44.81 57.39C42.18 65.35 44.14 72.73 47.17 80.23C50.2 87.74 54.31 95.38 55.98 103.88C57.64 95.38 61.76 87.74 64.81 80.24C67.86 72.73 69.83 65.36 67.2 57.4C68.42 58.34 69.51 59.34 70.48 60.43C71.45 61.51 72.3 62.67 73.02 63.92Z" fill="#383032"/>
<path fill-rule="evenodd" clip-rule="evenodd" d="M55.98 103.88C57.36 96.8 60.44 90.32 63.19 84.01C61.33 85.99 58.54 87.52 56 87.41C53.46 87.52 50.66 85.99 48.81 84C48.78 83.97 48.75 83.93 48.72 83.9C51.47 90.24 54.58 96.76 55.98 103.88Z" fill="white"/>
<defs>
<linearGradient id="paint0_linear" x1="54.9" y1="2" x2="54.9" y2="111.8" gradientUnits="userSpaceOnUse">
<stop stop-color="#F8EDED"/>
<stop offset="1" stop-color="#EB9494"/>
</linearGradient>
</defs>
</svg>
