<svg width="110" height="110" viewBox="0 0 110 110" fill="none" xmlns="http://www.w3.org/2000/svg">
<path d="M54.9 109.8C85.2204 109.8 109.8 85.2204 109.8 54.9C109.8 24.5796 85.2204 0 54.9 0C24.5796 0 0 24.5796 0 54.9C0 85.2204 24.5796 109.8 54.9 109.8Z" fill="url(#paint0_linear)"/>
<path fill-rule="evenodd" clip-rule="evenodd" d="M77.2099 30.61C77.9699 31.96 77.9199 34.09 77.2499 36.74C76.4599 39.86 74.5099 42.1 72.5799 42.32C71.5999 46.83 69.6699 50.81 67.1099 53.83C70.4899 56.51 73.2999 59.52 75.2899 63.01C80.2999 64.61 85.2099 67.28 90.1599 69.52C91.4099 70.09 91.1699 69.89 91.7299 71.18C94.0099 76.46 95.6299 81.84 97.6199 87.16C87.7499 99.91 72.2999 108.12 54.9199 108.12C37.5199 108.12 22.0399 99.88 12.1699 87.08C14.4699 82.18 15.8299 76.29 18.2699 71.13C18.9399 69.73 18.7199 69.95 20.1099 69.34C24.8799 67.26 29.3799 64.89 34.5599 63.26C36.8499 59.34 39.7499 56.25 43.3399 54.12C40.6499 51.07 38.6499 47 37.6299 42.33C35.5899 42.37 33.4299 40.06 32.5899 36.74C31.9199 34.09 31.8799 31.96 32.6299 30.61C33.0299 29.91 33.5099 29.56 34.0199 29.45C31.0199 18.75 34.5599 11.32 42.1599 6.86005C52.7699 -1.20995 66.2999 -0.509954 74.4499 10.77C78.2699 16.06 78.8899 23.91 77.2099 30.61Z" fill="#1A1617"/>
<path fill-rule="evenodd" clip-rule="evenodd" d="M33.2699 29.82C33.0399 30.01 32.8299 30.27 32.6299 30.61C31.8799 31.96 31.9199 34.09 32.5899 36.74C33.1699 39 34.3499 40.8 35.6999 41.7C36.3199 42.12 36.9799 42.35 37.6299 42.33C38.6499 47 40.6499 51.07 43.3399 54.12C43.0099 55.08 42.6999 56.39 42.4199 57.7C46.0099 63.26 50.3099 66.5 54.9199 66.5C59.7799 66.5 64.2799 62.92 67.9799 56.83C67.6499 55.49 67.3299 54.41 67.1099 53.83C69.6699 50.81 71.5999 46.83 72.5799 42.32C73.1099 42.26 73.6399 42.04 74.1499 41.7C75.4999 40.8 76.6799 39 77.2499 36.74C77.9199 34.09 77.9699 31.96 77.2099 30.61C77.0199 30.27 76.8099 30.01 76.5799 29.82C75.3999 28.84 73.7999 29.69 73.0099 30.97C72.7399 31.4 72.7499 31.98 72.8899 32.48C72.8299 33.89 72.9199 35.29 72.6099 36.59C72.5099 37.01 71.7299 37.45 71.8299 36.81C72.1899 34.47 71.9099 31.72 72.2999 29.51C69.8299 25.1 65.0699 22.41 56.7899 21.52C51.9899 21.01 48.3499 18.2 45.2599 14.81C41.8299 17.78 39.1899 22.26 37.8599 27.54L38.2199 29.51C38.6099 31.72 38.3199 34.47 38.6899 36.81C38.7899 37.45 38.0099 37.01 37.9099 36.59C37.5999 35.29 37.4199 33.88 37.3599 32.47C37.4099 32.16 37.2699 31.72 37.1299 31.44C36.4999 30.25 35.1899 29.2 34.0199 29.45C33.7599 29.5 33.5099 29.62 33.2699 29.82Z" fill="#F6D5B8"/>
<path fill-rule="evenodd" clip-rule="evenodd" d="M37.4699 41.25C37.0699 39.42 36.8499 37.57 36.8099 35.71C36.7799 34.52 36.8199 33.32 36.9299 32.13C36.8299 31.99 36.7299 31.86 36.6099 31.73C36.2199 31.32 35.5199 30.79 34.8899 30.85C34.4199 30.88 34.1099 31.26 33.9099 31.61C33.1199 33.02 33.6499 35.39 34.0799 36.83C34.4499 38.06 35.0999 39.34 36.0599 40.28C36.4299 40.65 36.9299 41.03 37.4699 41.25ZM72.6199 41.25C73.0199 39.42 73.2399 37.57 73.2799 35.71C73.3199 34.52 73.2699 33.32 73.1599 32.13C73.2599 31.99 73.3599 31.86 73.4799 31.73C73.8699 31.32 74.5699 30.79 75.1999 30.85C75.6699 30.88 75.9799 31.26 76.1799 31.61C76.9699 33.02 76.4399 35.39 76.0099 36.83C75.6499 38.06 74.9899 39.34 74.0299 40.28C73.6599 40.65 73.1599 41.03 72.6199 41.25Z" fill="#E6C6AA"/>
<path fill-rule="evenodd" clip-rule="evenodd" d="M43.3399 54.17C36.5599 73.2 51.0399 91.05 54.3399 108.12C53.7999 108.11 53.2599 108.1 52.7199 108.07L30.8599 80.64L37.0999 75.75C35.7399 73.85 33.2099 72.94 32.0899 70.98C33.1399 68.5 33.0599 65.68 34.5599 63.31C36.8499 59.39 39.7499 56.3 43.3399 54.17ZM68.2699 54.79C71.1399 57.22 73.5299 59.93 75.2899 63.01C75.5499 63.09 75.7999 63.18 76.0499 63.26L76.0799 63.31C77.5799 65.68 77.4999 68.5 78.5499 70.98C77.4299 72.94 74.9099 73.85 73.5399 75.75L79.7799 80.64L57.9599 108.04C57.4099 108.07 56.8599 108.09 56.2999 108.1C59.6099 91.04 74.0799 73.19 67.2999 54.17C67.6299 54.37 67.9499 54.57 68.2699 54.79Z" fill="#383032"/>
<path fill-rule="evenodd" clip-rule="evenodd" d="M67.1099 53.83C67.1599 53.77 62.3699 59.23 55.1499 59.23C50.1199 59.23 43.3699 54.15 43.3699 54.16L43.1599 55.05C44.4399 56.54 45.8799 57.73 47.4599 58.68C49.7999 60.08 52.4499 60.95 55.3299 61.43C58.0999 61.89 61.0899 61.99 64.2099 61.85C65.5399 60.46 66.7999 58.77 67.9799 56.83C67.6599 55.5 67.3299 54.41 67.1099 53.83Z" fill="#E6C6AA"/>
<path fill-rule="evenodd" clip-rule="evenodd" d="M54.9198 66.5C50.3098 66.5 46.0098 63.26 42.4198 57.7C42.6998 56.39 43.0098 55.08 43.3398 54.12C38.9498 66.44 43.4698 78.26 48.0998 89.7C50.6298 95.95 53.1898 102.08 54.3498 108.12H54.9198C55.3798 108.12 55.8398 108.11 56.2898 108.1C57.3698 102.53 59.6398 96.86 61.9698 91.11C66.7798 79.23 71.8698 66.94 67.2998 54.12C67.5398 54.27 67.7698 54.41 68.0098 54.56C67.7098 54.32 67.4098 54.07 67.1098 53.83C67.3298 54.41 67.6498 55.49 67.9798 56.83C66.7998 58.77 65.5398 60.46 64.2098 61.85C61.3698 64.84 58.2298 66.5 54.9198 66.5Z" fill="white"/>
<path fill-rule="evenodd" clip-rule="evenodd" d="M54.9799 67.53L49.1899 76.76L51.1399 79.57L48.0999 89.73C50.6199 95.97 53.1799 102.09 54.3399 108.12H54.9199C55.3799 108.12 55.8399 108.11 56.2999 108.1C57.3799 102.54 59.6399 96.89 61.9699 91.14C62.2799 90.3 58.6699 79.7 58.6699 79.7L60.6199 76.27L54.9799 67.53Z" fill="#F23034"/>
<path fill-rule="evenodd" clip-rule="evenodd" d="M54.9799 67.73L45.9599 79.97L42.1199 71.07C43.1999 77.43 45.6599 83.67 48.1399 89.8L51.1399 79.77L49.1899 76.96L54.9799 67.73ZM64.0599 80.15L54.9799 67.73L60.6199 76.47L58.6699 79.9C58.6699 79.9 61.8399 89.21 61.9799 91.07C64.7099 84.36 67.5099 77.51 68.6099 70.51L64.0599 80.15Z" fill="#E6E6E6"/>
<path fill-rule="evenodd" clip-rule="evenodd" d="M56.7899 21.52C51.9899 21.01 48.3499 18.2 45.2599 14.81C41.8299 17.78 39.1899 22.26 37.8599 27.54C40.3099 23.78 41.8999 18.96 45.2099 16.27C49.6799 25.45 65.2799 22.07 72.2999 29.51C69.8299 25.1 65.0699 22.41 56.7899 21.52Z" fill="#E6C6AA"/>
<defs>
<linearGradient id="paint0_linear" x1="54.9" y1="0" x2="54.9" y2="109.8" gradientUnits="userSpaceOnUse">
<stop stop-color="#E9EFF3"/>
<stop offset="1" stop-color="#60A8DC"/>
</linearGradient>
</defs>
</svg>
